<?xml version="1.0" standalone="no"?>
<!DOCTYPE svg PUBLIC "-//W3C//DTD SVG 20010904//EN"
 "http://www.w3.org/TR/2001/REC-SVG-20010904/DTD/svg10.dtd">
<svg version="1.0" xmlns="http://www.w3.org/2000/svg"
 width="128.000000pt" height="128.000000pt" viewBox="0 0 128.000000 128.000000"
 preserveAspectRatio="xMidYMid meet">

<g transform="translate(0.000000,128.000000) scale(0.100000,-0.100000)"
fill="#000000" stroke="none">
<path d="M325 865 c-154 -90 -281 -167 -282 -172 -2 -4 14 -19 35 -32 20 -13
56 -37 79 -53 23 -15 46 -28 51 -28 6 0 112 56 236 125 125 69 233 128 241
131 9 4 32 -12 60 -42 41 -46 44 -53 45 -106 0 -32 3 -58 6 -58 4 0 46 23 94
50 l88 51 4 58 3 58 -168 92 c-93 50 -178 91 -190 90 -12 -1 -148 -74 -302
-164z"/>
<path d="M790 580 c-135 -55 -253 -100 -262 -100 -9 0 -19 8 -23 19 -3 10 -14
26 -25 36 -15 14 -20 31 -20 72 l0 54 -57 -31 c-97 -52 -120 -77 -125 -136 -5
-49 -3 -53 26 -68 38 -20 157 -91 172 -103 5 -4 28 -17 50 -29 21 -11 57 -31
80 -44 l41 -24 284 176 c156 97 284 180 286 184 3 11 -144 94 -166 94 -9 -1
-126 -46 -261 -100z"/>
</g>
</svg>
